<?xml version="1.0" standalone="no"?>
<!DOCTYPE svg PUBLIC "-//W3C//DTD SVG 20010904//EN"
 "http://www.w3.org/TR/2001/REC-SVG-20010904/DTD/svg10.dtd">
<svg version="1.0" xmlns="http://www.w3.org/2000/svg"
 width="1024.000000pt" height="1024.000000pt" viewBox="0 0 1024.000000 1024.000000"
 preserveAspectRatio="xMidYMid meet">
<metadata>
Created by potrace 1.11, written by Peter Selinger 2001-2013
</metadata>
<g transform="translate(0.000000,1024.000000) scale(0.100000,-0.100000)"
fill="#000000" stroke="none">
<path d="M4868 10065 c-1 -1 -54 -6 -116 -10 -63 -4 -124 -8 -135 -11 -12 -2
-42 -5 -67 -8 -71 -7 -143 -17 -170 -22 -32 -6 -65 -11 -114 -19 -21 -3 -48
-7 -60 -10 -12 -3 -32 -7 -46 -9 -153 -25 -500 -121 -696 -191 -127 -46 -331
-128 -363 -145 -9 -5 -77 -38 -151 -74 -150 -72 -252 -127 -380 -204 -84 -51
-105 -60 -112 -44 -1 4 -23 23 -48 42 -25 19 -47 38 -50 41 -11 12 -128 78
-180 101 -157 71 -297 98 -475 93 -151 -5 -171 -7 -285 -42 -234 -70 -445
-222 -587 -424 -70 -101 -146 -273 -167 -384 -4 -16 -9 -41 -12 -55 -3 -14 -7
-83 -9 -155 -4 -188 18 -299 92 -470 37 -86 125 -225 167 -264 14 -14 26 -28
26 -33 0 -4 -36 -70 -81 -146 -169 -289 -341 -671 -439 -977 -49 -153 -122
-435 -144 -555 -9 -47 -20 -107 -26 -135 -5 -27 -12 -70 -15 -95 -3 -25 -8
-56 -10 -70 -2 -14 -7 -54 -11 -90 -4 -36 -8 -74 -9 -85 -27 -217 -27 -776 0
-995 24 -195 37 -296 41 -314 5 -23 8 -39 19 -101 3 -22 8 -47 10 -55 2 -8 7
-28 9 -45 13 -74 91 -367 132 -497 112 -349 303 -768 485 -1061 27 -43 49 -83
49 -88 0 -5 -15 -26 -32 -45 -48 -52 -123 -167 -162 -249 -75 -157 -107 -313
-101 -500 4 -111 12 -164 39 -276 12 -45 72 -182 106 -240 264 -447 804 -646
1295 -478 116 40 212 93 325 180 l90 69 117 -71 c246 -148 656 -334 943 -428
210 -68 488 -140 635 -165 17 -3 46 -8 65 -11 19 -3 42 -8 50 -10 8 -2 42 -7
75 -11 33 -3 62 -8 65 -9 3 -2 37 -6 75 -10 39 -3 77 -8 85 -10 110 -27 814
-27 1015 0 17 3 55 7 85 10 51 5 225 32 350 54 184 32 417 94 655 174 91 30
368 137 402 156 10 5 36 17 58 27 122 52 333 163 478 251 48 29 92 55 97 56 7
2 51 -29 100 -74 96 -85 309 -187 449 -214 130 -25 322 -30 411 -11 14 3 39 8
55 12 17 3 59 15 95 26 273 88 493 271 634 528 42 78 102 254 113 336 9 73 10
273 1 334 -31 209 -126 410 -271 574 l-35 39 36 56 c105 164 262 470 341 661
24 58 47 114 52 125 27 63 96 265 154 455 54 178 132 573 150 765 3 33 8 71
10 85 27 147 27 837 0 1003 -2 12 -6 49 -10 82 -3 33 -13 105 -22 160 -8 55
-16 109 -18 120 -6 40 -37 191 -52 250 -8 33 -16 67 -18 75 -2 8 -13 51 -25
95 -12 44 -25 96 -30 115 -20 77 -124 368 -182 507 -98 235 -303 632 -365 704
-11 13 -10 18 5 35 54 58 137 179 173 252 88 181 120 323 115 517 -2 72 -7
141 -10 155 -3 14 -9 41 -12 60 -11 59 -64 201 -101 270 -153 284 -421 486
-738 556 -97 22 -312 26 -405 8 -214 -40 -361 -111 -552 -266 -26 -20 -29 -21
-46 -5 -10 9 -21 17 -24 17 -3 0 -45 24 -95 54 -292 176 -688 352 -1035 460
-128 40 -334 95 -408 110 -211 42 -308 58 -415 71 -27 3 -59 8 -70 10 -11 2
-49 6 -85 10 -36 3 -92 8 -125 11 -65 6 -621 14 -627 9z"/>
</g>
</svg>
